<svg width="447" height="168" viewBox="0 0 447 168" fill="none" xmlns="http://www.w3.org/2000/svg">
<path d="M18.2416 45.7024L18.0486 59.0208L10.5537 60.5857L10.72 46.2892L0.700195 31.1871L8.19511 29.6222L14.6721 39.5886L20.3141 27.0924L28.8369 25.312L18.2382 45.709L18.2416 45.7024Z" fill="url(#paint0_linear_278_682)"/>
<path d="M59.6821 41.4082C59.1931 43.1157 58.6009 44.3524 58.3248 44.9459C57.4399 46.6898 55.4207 50.2772 50.8233 52.4389C50.1746 52.7539 48.5678 53.4004 46.5951 53.8115C41.0263 54.9753 37.2639 53.4435 35.371 52.1007C33.7909 50.9602 31.4156 48.3807 30.391 43.5169C29.9519 41.4248 29.9486 39.5084 29.9785 38.7923C30.1482 34.7009 31.4855 30.2316 34.0736 27.0189C34.709 26.2165 36.0197 24.7842 38.2452 23.4746C39.1168 22.9375 41.1727 21.8832 43.9171 21.3096C47.6862 20.5205 51.5584 20.8719 54.7187 22.9276C58.8205 25.6363 59.7353 29.7675 60.0746 31.3887C60.4439 33.1393 60.9595 36.8626 59.6788 41.4082H59.6821ZM51.1792 29.6846C49.6223 27.6024 46.8113 26.9891 44.2698 27.6522C43.335 27.8909 42.5333 28.3285 42.2937 28.4645C40.7402 29.3696 38.8773 31.1401 38.1155 35.175C37.7063 37.2671 37.6564 40.2179 38.0855 42.2669C38.3184 43.3776 38.6444 44.2894 39.2366 45.1912C40.7435 47.4623 43.172 48.3807 45.8167 47.7806C48.2152 47.28 49.6756 45.7283 50.2112 45.0785C52.7394 42.0083 53.2916 36.5477 52.5265 32.9205C52.4267 32.4497 52.104 30.9146 51.1759 29.6812L51.1792 29.6846Z" fill="url(#paint1_linear_278_682)"/>
<path d="M92.1567 32.7523C92.1201 35.345 91.8939 37.888 90.5965 40.2089C88.697 43.7266 84.6651 45.8154 80.9393 46.5945C80.2108 46.7471 78.2747 47.1084 76.0491 46.9493C72.0572 46.6708 69.8317 44.8174 68.8503 43.5509C68.3646 42.9409 67.6061 41.671 67.1936 39.7082C66.851 38.0869 66.8477 36.5718 66.8477 34.8775L67.0872 17.3153L74.6686 15.7305L74.4257 34.9869C74.4025 35.3052 74.3858 36.2866 74.6021 37.3111C74.7185 37.8648 74.9048 38.319 75.2175 38.7434C75.8429 39.5922 77.4397 40.5968 79.8814 40.0862C81.3818 39.7745 83.3644 39.002 84.1229 35.5904C84.2526 34.9405 84.4123 34.4167 84.4423 33.0739L84.9047 13.592L92.4428 12.0171L92.1567 32.7523Z" fill="url(#paint2_linear_278_682)"/>
<path d="M123.84 36.9166L116.475 38.455L106.455 20.3622L106.239 40.5935L99.2998 42.0423L99.8986 10.4555L107.35 8.89718L117.477 27.0562L117.503 6.77525L124.399 5.33301L123.844 36.9099L123.84 36.9166Z" fill="url(#paint3_linear_278_682)"/>
<path d="M159.815 29.3999L153.048 30.8123L153.075 28.1765C153.032 28.1864 152.154 29.5292 151.575 30.1824C150.81 31.0112 149.063 32.49 146.196 33.0901C142.932 33.7267 139.183 33.1299 136.462 31.2466C134.785 30.0829 131.988 27.4139 130.856 22.0328C129.915 17.5503 130.547 12.6964 132.543 8.80065C133.84 6.25765 136.854 1.8845 144.007 0.389201C148.162 -0.479463 153.135 -0.002029 156.388 2.92557C157.549 3.97658 157.985 4.77562 158.76 6.12835L151.961 9.51017C151.601 8.87359 151.225 8.14749 150.717 7.63027C149.918 6.81466 147.995 5.74706 145.211 6.33059C142.683 6.85776 140.913 8.43263 139.795 10.7601C138.458 13.5352 138.268 17.3182 138.887 20.2624C139.003 20.8161 139.256 22.013 139.988 23.3756C141.465 26.1408 144.12 27.5034 147.29 26.8403C149.432 26.3927 151.505 24.9803 152.37 22.928C152.789 21.95 152.919 20.8525 153.012 19.8081L146.715 21.1244L146.788 15.0935L160.064 12.3184L159.812 29.3933L159.815 29.3999Z" fill="url(#paint4_linear_278_682)"/>
<path d="M31.9716 87.9222C31.2663 86.8447 30.947 86.2976 30.4946 85.7804C29.4866 84.5603 26.6589 82.1566 22.2079 83.0849C20.2452 83.496 16.7822 84.8985 14.5167 89.391C13.3058 91.755 11.4296 97.1195 12.8401 103.837C14.7296 112.497 20.1787 114.695 24.1706 113.863C25.5445 113.574 28.0661 112.573 30.1918 109.679C31.955 107.335 32.5371 105.239 33.1925 102.514L43.9375 105.853C43.1591 108.329 42.8663 109.208 42.2509 110.494C40.6441 113.893 36.253 121.28 25.9271 123.508C23.8346 123.945 18.0696 124.807 12.1847 122.158C5.70445 119.29 2.13497 113.362 0.681225 106.449C0.0391832 103.379 -0.0240229 100.806 0.00591686 99.6426C0.0890828 93.2237 2.50422 86.1816 6.89206 81.384C11.6325 76.308 17.7136 74.6967 20.0689 74.2027C25.9737 73.0356 30.428 74.08 32.5604 74.7928C34.4533 75.3498 36.2064 76.2085 37.7666 77.4519C39.8923 79.1196 41.0766 80.8469 42.5137 83.1313L31.9749 87.9222H31.9716Z" fill="url(#paint5_linear_278_682)"/>
<path d="M90.5042 82.6363C90.0085 84.1713 89.2334 85.6932 88.1955 86.9332C86.9247 88.3555 85.5043 89.4032 82.1643 91.3925L93.5315 108.083L80.9667 110.709L71.4093 95.4772L63.3588 97.1582L63.0361 114.452L51.5825 116.846L52.3676 68.6083L72.72 64.3545C73.7014 64.149 74.6162 63.9567 75.6142 63.8174C76.9515 63.6749 80.0153 63.3068 83.465 64.7657C85.797 65.7769 89.5162 68.2005 90.8469 74.5265C91.1363 75.8958 91.612 79.1318 90.5009 82.6329L90.5042 82.6363ZM77.7964 74.195C76.3028 72.9417 74.8191 72.7063 71.5457 73.3893L63.758 75.0172L63.5285 88.2063L73.2157 86.1838C73.4785 86.1308 74.6428 85.8191 75.6474 85.4047C77.5802 84.5228 78.668 83.2065 79.2801 81.2404C79.839 79.3539 79.6161 77.968 79.4531 77.1856C79.3433 76.665 79.0406 75.2294 77.7998 74.195H77.7964Z" fill="url(#paint6_linear_278_682)"/>
<path d="M134.321 60.6826L112.399 65.2647L112.249 74.6244L133.386 70.2081L133.26 79.0174L112.123 83.4337L111.916 95.1208L137.112 89.8558L137.052 98.9933L100.403 106.652L101.251 58.4016L134.498 51.4556L134.321 60.6859V60.6826Z" fill="url(#paint7_linear_278_682)"/>
<path d="M176.841 90.6775L174.329 81.6692L157.313 85.2235L154.13 95.422L142.024 97.9517L160.543 46.0076L173.501 43.2988L188.098 88.3235L176.841 90.6742V90.6775ZM166.827 54.7738L160.271 75.8903L172.05 73.4302L166.827 54.7738Z" fill="url(#paint8_linear_278_682)"/>
<path d="M225.446 41.7774L213.47 44.2806L212.901 83.145L201.318 85.5653L201.887 46.7009L189.192 49.3533L189.602 39.9373L225.859 32.3613L225.449 41.7774H225.446Z" fill="url(#paint9_linear_278_682)"/>
<path d="M245.885 76.2484L234.368 78.6555L235.02 30.4447L246.537 28.0376L245.885 76.2484Z" fill="url(#paint10_linear_278_682)"/>
<path d="M282.269 68.6464L268.786 71.4646L253.537 26.5792L264.99 24.1854L275.146 57.198L284.887 20.0278L296.993 17.498L282.269 68.6464Z" fill="url(#paint11_linear_278_682)"/>
<path d="M337.258 18.2739L315.335 22.856L315.186 32.2157L336.323 27.7994L336.197 36.6087L315.059 41.025L314.853 52.7121L340.049 47.4471L339.989 56.5847L303.339 64.2435L304.188 15.9929L337.434 9.04688L337.258 18.2773V18.2739Z" fill="url(#paint12_linear_278_682)"/>
<path d="M376.887 15.3714C376.461 14.642 375.862 13.7468 375.187 13.1401C372.632 10.7463 368.211 10.5109 365.004 11.1806C364.415 11.3033 363.237 11.5486 361.96 12.2946C359.665 13.7269 359.146 15.8091 359.365 16.8535C359.419 17.1154 359.621 17.752 360.167 18.3885C361.571 19.8639 364.588 19.917 368.883 20.5171C371.338 20.8221 373.886 21.2432 376.331 21.8201C378.843 22.3837 385.35 24.0879 386.966 31.7865C387.858 36.0271 386.793 40.062 384.112 43.5499C379.448 49.6306 372.236 51.0695 370.011 51.537C360.323 53.5595 353.667 51.1391 350.314 48.8448C349.126 48.0723 348.357 47.3462 346.438 45.3635L355.25 36.9156C355.37 37.1643 356.102 38.3711 356.884 39.1602C358.617 40.9075 362.496 43.4339 368.454 42.1906C371.072 41.6435 372.506 40.6621 373.311 39.9493C375.273 38.2451 375.413 36.3089 375.193 35.2645C374.811 33.7791 373.686 32.6519 370.613 31.9987C366.538 31.1466 362.289 31.0836 358.188 30.0989C356.099 29.5817 349.605 27.9438 348.108 20.8354C347.805 19.3998 347.529 16.4622 348.913 12.971C350.633 8.80008 354.459 4.25451 364.472 2.16243C366.175 1.80767 374.039 0.232799 380.25 3.76713C382.123 4.87451 383.736 6.37644 385.35 7.87505L376.883 15.3648L376.887 15.3714Z" fill="url(#paint13_linear_278_682)"/>
<path d="M130.986 159.517C127.802 161.467 124.665 162.664 117.197 164.222L100.377 167.736L101.219 119.864L119.336 116.077C120.57 115.819 121.781 115.769 122.975 115.653C127.982 115.282 130.969 116.28 132.945 117.284C136.122 118.849 139.925 122.108 141.654 130.328C144.036 141.653 140.713 153.563 130.983 159.514L130.986 159.517ZM126.581 126.657C125.128 125.543 123.704 125.232 123.078 125.159C121.748 124.963 120.527 124.95 117.862 125.507L112.147 126.7L111.705 156.182L116.771 155.124C120.603 154.325 124.316 153.277 126.821 150.051C128.724 147.492 131.814 141.239 129.965 132.774C129.203 129.15 127.939 127.659 126.578 126.661L126.581 126.657Z" fill="url(#paint14_linear_278_682)"/>
<path d="M185.203 111.436L163.45 115.981L163.303 125.268L184.278 120.885L184.151 129.628L163.177 134.011L162.974 145.605L187.974 140.38L187.914 149.445L151.55 157.044L152.395 109.171L185.382 102.278L185.206 111.436H185.203Z" fill="url(#paint15_linear_278_682)"/>
<path d="M234.471 139.717L223.303 142.051L208.11 114.622L207.784 145.294L197.266 147.492L198.174 99.6058L209.474 97.2452L224.824 124.777L224.863 94.0292L235.319 91.8442L234.474 139.717H234.471Z" fill="url(#paint16_linear_278_682)"/>
<path d="M294.989 127.071L284.34 129.296L285.089 92.2518L275.378 131.169L265.767 133.179L256.925 97.5998L256.609 135.095L245.894 137.333L246.543 89.5L263.492 85.959L270.574 115.759L278.492 82.8258L295.701 79.2285L294.989 127.075V127.071Z" fill="url(#paint17_linear_278_682)"/>
<path d="M336.483 118.402L333.992 109.463L317.109 112.991L313.949 123.11L301.936 125.62L320.312 74.0835L333.17 71.3979L347.651 116.068L336.48 118.402H336.483ZM326.547 82.7801L320.04 103.731L331.729 101.287L326.547 82.7768V82.7801Z" fill="url(#paint18_linear_278_682)"/>
<path d="M393.474 80.6176C392.982 82.1394 392.214 83.6513 391.186 84.878C389.925 86.2904 388.514 87.3282 385.201 89.3042L396.482 105.865L384.013 108.471L374.529 93.3591L366.542 95.0268L366.219 112.188L354.855 114.562L355.634 66.7024L375.83 62.4818C376.805 62.2795 377.713 62.0872 378.701 61.948C380.028 61.8054 383.069 61.4407 386.492 62.8862C388.804 63.8908 392.496 66.2946 393.817 72.5708C394.103 73.9302 394.576 77.1429 393.474 80.6143V80.6176ZM380.866 72.2393C379.386 70.996 377.912 70.7639 374.666 71.4403L366.938 73.0549L366.708 86.1412L376.319 84.132C376.578 84.079 377.733 83.7706 378.731 83.3595C380.65 82.4875 381.728 81.1779 382.337 79.2284C382.892 77.3551 382.67 75.9825 382.506 75.2067C382.397 74.6895 382.097 73.2671 380.866 72.2393Z" fill="url(#paint19_linear_278_682)"/>
<path d="M427.982 70.6347L447 95.3054L434.988 97.8152L421.375 79.5136L414.283 89.3043L414.143 102.172L403.235 104.453L403.947 56.6068L414.792 54.3423L414.519 73.99L430.57 51.0433L444.206 48.1953L427.978 70.638L427.982 70.6347Z" fill="url(#paint20_linear_278_682)"/>
<defs>
<linearGradient id="paint0_linear_278_682" x1="14.7686" y1="25.312" x2="14.7686" y2="60.5857" gradientUnits="userSpaceOnUse">
<stop stop-color="#62A6D5"/>
<stop offset="1" stop-color="#F1A3C3"/>
</linearGradient>
<linearGradient id="paint1_linear_278_682" x1="45.232" y1="20.9209" x2="45.232" y2="54.224" gradientUnits="userSpaceOnUse">
<stop stop-color="#62A6D5"/>
<stop offset="1" stop-color="#F1A3C3"/>
</linearGradient>
<linearGradient id="paint2_linear_278_682" x1="79.6452" y1="12.0171" x2="79.6452" y2="46.9889" gradientUnits="userSpaceOnUse">
<stop stop-color="#62A6D5"/>
<stop offset="1" stop-color="#F1A3C3"/>
</linearGradient>
<linearGradient id="paint3_linear_278_682" x1="111.85" y1="5.33301" x2="111.85" y2="42.0423" gradientUnits="userSpaceOnUse">
<stop stop-color="#62A6D5"/>
<stop offset="1" stop-color="#F1A3C3"/>
</linearGradient>
<linearGradient id="paint4_linear_278_682" x1="145.246" y1="0" x2="145.246" y2="33.3356" gradientUnits="userSpaceOnUse">
<stop stop-color="#62A6D5"/>
<stop offset="1" stop-color="#F1A3C3"/>
</linearGradient>
<linearGradient id="paint5_linear_278_682" x1="21.9688" y1="73.6782" x2="21.9688" y2="123.998" gradientUnits="userSpaceOnUse">
<stop stop-color="#62A6D5"/>
<stop offset="1" stop-color="#F1A3C3"/>
</linearGradient>
<linearGradient id="paint6_linear_278_682" x1="72.557" y1="63.6694" x2="72.557" y2="116.846" gradientUnits="userSpaceOnUse">
<stop stop-color="#62A6D5"/>
<stop offset="1" stop-color="#F1A3C3"/>
</linearGradient>
<linearGradient id="paint7_linear_278_682" x1="118.758" y1="51.4556" x2="118.758" y2="106.652" gradientUnits="userSpaceOnUse">
<stop stop-color="#62A6D5"/>
<stop offset="1" stop-color="#F1A3C3"/>
</linearGradient>
<linearGradient id="paint8_linear_278_682" x1="165.061" y1="43.2988" x2="165.061" y2="97.9517" gradientUnits="userSpaceOnUse">
<stop stop-color="#62A6D5"/>
<stop offset="1" stop-color="#F1A3C3"/>
</linearGradient>
<linearGradient id="paint9_linear_278_682" x1="207.525" y1="32.3613" x2="207.525" y2="85.5653" gradientUnits="userSpaceOnUse">
<stop stop-color="#62A6D5"/>
<stop offset="1" stop-color="#F1A3C3"/>
</linearGradient>
<linearGradient id="paint10_linear_278_682" x1="240.452" y1="28.0376" x2="240.452" y2="78.6555" gradientUnits="userSpaceOnUse">
<stop stop-color="#62A6D5"/>
<stop offset="1" stop-color="#F1A3C3"/>
</linearGradient>
<linearGradient id="paint11_linear_278_682" x1="275.265" y1="17.498" x2="275.265" y2="71.4646" gradientUnits="userSpaceOnUse">
<stop stop-color="#62A6D5"/>
<stop offset="1" stop-color="#F1A3C3"/>
</linearGradient>
<linearGradient id="paint12_linear_278_682" x1="321.694" y1="9.04687" x2="321.694" y2="64.2435" gradientUnits="userSpaceOnUse">
<stop stop-color="#62A6D5"/>
<stop offset="1" stop-color="#F1A3C3"/>
</linearGradient>
<linearGradient id="paint13_linear_278_682" x1="366.857" y1="1.50635" x2="366.857" y2="52.2939" gradientUnits="userSpaceOnUse">
<stop stop-color="#62A6D5"/>
<stop offset="1" stop-color="#F1A3C3"/>
</linearGradient>
<linearGradient id="paint14_linear_278_682" x1="121.386" y1="115.574" x2="121.386" y2="167.736" gradientUnits="userSpaceOnUse">
<stop stop-color="#62A6D5"/>
<stop offset="1" stop-color="#F1A3C3"/>
</linearGradient>
<linearGradient id="paint15_linear_278_682" x1="169.762" y1="102.278" x2="169.762" y2="157.044" gradientUnits="userSpaceOnUse">
<stop stop-color="#62A6D5"/>
<stop offset="1" stop-color="#F1A3C3"/>
</linearGradient>
<linearGradient id="paint16_linear_278_682" x1="216.292" y1="91.8442" x2="216.292" y2="147.492" gradientUnits="userSpaceOnUse">
<stop stop-color="#62A6D5"/>
<stop offset="1" stop-color="#F1A3C3"/>
</linearGradient>
<linearGradient id="paint17_linear_278_682" x1="270.797" y1="79.2285" x2="270.797" y2="137.333" gradientUnits="userSpaceOnUse">
<stop stop-color="#62A6D5"/>
<stop offset="1" stop-color="#F1A3C3"/>
</linearGradient>
<linearGradient id="paint18_linear_278_682" x1="324.793" y1="71.3979" x2="324.793" y2="125.62" gradientUnits="userSpaceOnUse">
<stop stop-color="#62A6D5"/>
<stop offset="1" stop-color="#F1A3C3"/>
</linearGradient>
<linearGradient id="paint19_linear_278_682" x1="375.669" y1="61.8003" x2="375.669" y2="114.562" gradientUnits="userSpaceOnUse">
<stop stop-color="#62A6D5"/>
<stop offset="1" stop-color="#F1A3C3"/>
</linearGradient>
<linearGradient id="paint20_linear_278_682" x1="425.117" y1="48.1953" x2="425.117" y2="104.453" gradientUnits="userSpaceOnUse">
<stop stop-color="#62A6D5"/>
<stop offset="1" stop-color="#F1A3C3"/>
</linearGradient>
</defs>
</svg>
